<svg width="48" height="48" viewBox="0 0 48 48" fill="none" xmlns="http://www.w3.org/2000/svg">
<mask id="mask0_2478_1104" style="mask-type:alpha" maskUnits="userSpaceOnUse" x="0" y="0" width="48" height="48">
<rect width="48" height="48" fill="#D9D9D9"/>
</mask>
<g mask="url(#mask0_2478_1104)">
<path d="M6.5 41.1543V14.1543H14.5V6.1543H33.5V22.1543H41.5V41.1543H26.5V33.1543H21.5V41.1543H6.5ZM9.5 38.1543H14.5V33.1543H9.5V38.1543ZM9.5 30.1543H14.5V25.1543H9.5V30.1543ZM9.5 22.1543H14.5V17.1543H9.5V22.1543ZM17.5 30.1543H22.5V25.1543H17.5V30.1543ZM17.5 22.1543H22.5V17.1543H17.5V22.1543ZM17.5 14.1543H22.5V9.1543H17.5V14.1543ZM25.5 30.1543H30.5V25.1543H25.5V30.1543ZM25.5 22.1543H30.5V17.1543H25.5V22.1543ZM25.5 14.1543H30.5V9.1543H25.5V14.1543ZM33.5 38.1543H38.5V33.1543H33.5V38.1543ZM33.5 30.1543H38.5V25.1543H33.5V30.1543Z" fill="#CEAB2E"/>
</g>
</svg>
