<svg width="20" height="20" viewBox="0 0 20 20" fill="none" xmlns="http://www.w3.org/2000/svg">
<mask id="mask0_2484_4856" style="mask-type:alpha" maskUnits="userSpaceOnUse" x="0" y="0" width="20" height="20">
<rect width="20" height="20" fill="#D9D9D9"/>
</mask>
<g mask="url(#mask0_2484_4856)">
<path d="M11.6562 14.1654H15.8229V9.9987H14.1562V12.4987H11.6562V14.1654ZM4.15625 9.9987H5.82292V7.4987H8.32292V5.83203H4.15625V9.9987ZM3.32292 16.6654C2.86458 16.6654 2.47222 16.5022 2.14583 16.1758C1.81944 15.8494 1.65625 15.457 1.65625 14.9987V4.9987C1.65625 4.54036 1.81944 4.148 2.14583 3.82161C2.47222 3.49523 2.86458 3.33203 3.32292 3.33203H16.6562C17.1146 3.33203 17.5069 3.49523 17.8333 3.82161C18.1597 4.148 18.3229 4.54036 18.3229 4.9987V14.9987C18.3229 15.457 18.1597 15.8494 17.8333 16.1758C17.5069 16.5022 17.1146 16.6654 16.6562 16.6654H3.32292Z" fill="#777777"/>
</g>
</svg>
