<svg width="48" height="48" viewBox="0 0 48 48" fill="none" xmlns="http://www.w3.org/2000/svg">
<mask id="mask0_2509_969" style="mask-type:alpha" maskUnits="userSpaceOnUse" x="0" y="0" width="48" height="48">
<rect width="48" height="48" fill="#D9D9D9"/>
</mask>
<g mask="url(#mask0_2509_969)">
<path d="M25.3075 41V20C24.8408 19.323 24.2403 18.7788 23.506 18.3675C22.7713 17.9558 21.9617 17.75 21.077 17.75C20.154 17.75 19.3187 17.9635 18.571 18.3905C17.8237 18.8175 17.2167 19.3988 16.75 20.1345H13.75C13.75 16.4782 15.0187 13.375 17.556 10.825C20.093 8.275 23.1768 7 26.8075 7C30.4512 7 33.5383 8.275 36.069 10.825C38.6 13.375 39.8655 16.4782 39.8655 20.1345H36.8655C36.3988 19.3988 35.7917 18.8175 35.044 18.3905C34.2967 17.9635 33.4678 17.75 32.5575 17.75C31.6728 17.75 30.8633 17.9558 30.129 18.3675C29.3943 18.7788 28.7872 19.323 28.3075 20V41H25.3075ZM32.077 41V29.6155H43V41H40V32.6155H35.077V41H32.077ZM8.7115 41V34.6305C8.1885 34.4638 7.75267 34.176 7.404 33.767C7.05533 33.3583 6.84767 32.8655 6.781 32.2885L5 14.673H5.7695C6.40783 14.673 6.96417 14.8917 7.4385 15.329C7.91283 15.766 8.18333 16.2973 8.25 16.923L9.546 29.6155H17.923C18.9333 29.6155 19.7885 29.9655 20.4885 30.6655C21.1885 31.3655 21.5385 32.2205 21.5385 33.2305V34.75H19.769V41H17.404V34.75H11.096V41H8.7115Z" fill="#D9AA00"/>
</g>
</svg>
