<svg width="48" height="48" viewBox="0 0 48 48" fill="none" xmlns="http://www.w3.org/2000/svg">
<mask id="mask0_2478_1111" style="mask-type:alpha" maskUnits="userSpaceOnUse" x="0" y="0" width="48" height="48">
<rect width="48" height="48" fill="#D9D9D9"/>
</mask>
<g mask="url(#mask0_2478_1111)">
<path d="M23.9994 41.3463C21.5688 41.3463 19.2919 40.8848 17.1689 39.9618C15.0456 39.0388 13.1918 37.785 11.6074 36.2003C10.0228 34.6156 8.76894 32.7618 7.84594 30.6388C6.9226 28.5158 6.46094 26.2388 6.46094 23.8078C6.46094 21.3771 6.9226 19.1003 7.84594 16.9773C8.76894 14.8543 10.0228 13.0005 11.6074 11.4158C13.1918 9.83113 15.0456 8.5773 17.1689 7.6543C19.2919 6.7313 21.5688 6.2698 23.9994 6.2698V1.6543L31.3839 9.0388L23.9994 16.4248V11.8088C20.6764 11.8088 17.8456 12.9783 15.5069 15.3173C13.1686 17.656 11.9994 20.4873 11.9994 23.8113C11.9994 25.8423 12.4661 27.7258 13.3994 29.4618C14.3328 31.1978 15.5918 32.6041 17.1764 33.6808C17.6584 32.8245 18.3856 32.097 19.3579 31.4983C20.3303 30.8993 21.4493 30.523 22.7149 30.3693C22.6209 29.7206 22.4954 29.072 22.3384 28.4233C22.1818 27.7746 21.9996 27.176 21.7919 26.6273C21.4533 26.903 21.0839 27.1173 20.6839 27.2703C20.2839 27.4236 19.8533 27.5003 19.3919 27.5003C18.3766 27.5003 17.5061 27.1383 16.7804 26.4143C16.0548 25.6903 15.6919 24.82 15.6919 23.8033V21.9553C15.6919 21.4313 15.6098 20.9418 15.4454 20.4868C15.2814 20.0318 15.0559 19.6005 14.7689 19.1928C16.3066 19.1595 17.6751 19.2976 18.8744 19.6073C19.9201 19.884 20.8734 20.3371 21.7344 20.9668C22.5958 21.5968 23.0431 22.5466 23.0764 23.8163C23.0764 24.095 23.0514 24.3505 23.0014 24.5828C22.9514 24.8148 22.8661 25.0515 22.7454 25.2928C22.3468 24.9835 21.9481 24.705 21.5494 24.4573C21.1508 24.21 20.7366 23.9935 20.3069 23.8078C20.8353 24.2155 21.4369 24.8333 22.1119 25.6613C22.7873 26.489 23.4164 27.47 23.9994 28.6043C24.6278 27.099 25.4014 25.6156 26.3204 24.1543C27.2398 22.6926 28.3123 21.3465 29.5379 20.1158C28.8353 20.6105 28.1596 21.1323 27.5109 21.6813C26.8623 22.23 26.2303 22.8183 25.6149 23.4463C25.4073 23.1053 25.2399 22.7268 25.1129 22.3108C24.9859 21.8945 24.9224 21.4705 24.9224 21.0388C24.9224 19.7541 25.3706 18.6638 26.2669 17.7678C27.1629 16.8715 28.2553 16.4233 29.5439 16.4233H31.3844C32.0901 16.4233 32.6731 16.331 33.1334 16.1463C33.5938 15.962 33.9773 15.7466 34.2839 15.5003C34.6256 15.2233 34.8898 14.9156 35.0764 14.5773C35.1968 16.644 35.0929 18.4901 34.7649 20.1158C34.4776 21.5005 33.9499 22.7686 33.1819 23.9203C32.4136 25.072 31.1998 25.6478 29.5404 25.6478C29.0798 25.6478 28.6419 25.5865 28.2269 25.4638C27.8123 25.3408 27.4359 25.1718 27.0979 24.9568C26.8829 25.5405 26.6371 26.3161 26.3604 27.2838C26.0838 28.2511 25.8686 29.29 25.7149 30.4003C26.8806 30.616 27.9083 31.0165 28.7979 31.6018C29.6876 32.1871 30.3624 32.8801 30.8224 33.6808C32.3941 32.6045 33.6498 31.2051 34.5894 29.4828C35.5294 27.7605 35.9994 25.8688 35.9994 23.8078H41.5379C41.5379 26.2388 41.0763 28.5158 40.1529 30.6388C39.2299 32.7618 37.9761 34.6156 36.3914 36.2003C34.8071 37.785 32.9533 39.0388 30.8299 39.9618C28.7069 40.8848 26.4301 41.3463 23.9994 41.3463Z" fill="#CEAB2E"/>
</g>
</svg>
