<svg width="24" height="24" viewBox="0 0 24 24" fill="none" xmlns="http://www.w3.org/2000/svg">
<mask id="mask0_2547_1059" style="mask-type:alpha" maskUnits="userSpaceOnUse" x="0" y="0" width="24" height="24">
<rect width="24" height="24" fill="#D9D9D9"/>
</mask>
<g mask="url(#mask0_2547_1059)">
<path d="M12.0078 21.999C10.2411 21.999 8.79948 21.7199 7.68281 21.1615C6.56615 20.6032 6.00781 19.8824 6.00781 18.999C6.00781 18.599 6.12865 18.2282 6.37031 17.8865C6.61198 17.5449 6.94948 17.249 7.38281 16.999L8.95781 18.474C8.80781 18.5407 8.64531 18.6157 8.47031 18.699C8.29531 18.7824 8.15781 18.8824 8.05781 18.999C8.27448 19.2657 8.77448 19.499 9.55781 19.699C10.3411 19.899 11.1578 19.999 12.0078 19.999C12.8578 19.999 13.6786 19.899 14.4703 19.699C15.262 19.499 15.7661 19.2657 15.9828 18.999C15.8661 18.8657 15.7161 18.7574 15.5328 18.674C15.3495 18.5907 15.1745 18.5157 15.0078 18.449L16.5578 16.949C17.0245 17.2157 17.3828 17.5199 17.6328 17.8615C17.8828 18.2032 18.0078 18.5824 18.0078 18.999C18.0078 19.8824 17.4495 20.6032 16.3328 21.1615C15.2161 21.7199 13.7745 21.999 12.0078 21.999ZM12.0078 18.999C9.65781 17.2657 7.90365 15.5824 6.74531 13.949C5.58698 12.3157 5.00781 10.7157 5.00781 9.14902C5.00781 7.96569 5.22031 6.92819 5.64531 6.03652C6.07031 5.14486 6.61615 4.39902 7.28281 3.79902C7.94948 3.19902 8.69948 2.74902 9.53281 2.44902C10.3661 2.14902 11.1911 1.99902 12.0078 1.99902C12.8245 1.99902 13.6495 2.14902 14.4828 2.44902C15.3161 2.74902 16.0661 3.19902 16.7328 3.79902C17.3995 4.39902 17.9453 5.14486 18.3703 6.03652C18.7953 6.92819 19.0078 7.96569 19.0078 9.14902C19.0078 10.7157 18.4286 12.3157 17.2703 13.949C16.112 15.5824 14.3578 17.2657 12.0078 18.999ZM12.0078 10.999C12.5578 10.999 13.0286 10.8032 13.4203 10.4115C13.812 10.0199 14.0078 9.54902 14.0078 8.99902C14.0078 8.44902 13.812 7.97819 13.4203 7.58652C13.0286 7.19486 12.5578 6.99902 12.0078 6.99902C11.4578 6.99902 10.987 7.19486 10.5953 7.58652C10.2036 7.97819 10.0078 8.44902 10.0078 8.99902C10.0078 9.54902 10.2036 10.0199 10.5953 10.4115C10.987 10.8032 11.4578 10.999 12.0078 10.999Z" fill="#1E4645"/>
</g>
</svg>
