<svg width="20" height="20" viewBox="0 0 20 20" fill="none" xmlns="http://www.w3.org/2000/svg">
<g clip-path="url(#clip0_2484_4841)">
<g clip-path="url(#clip1_2484_4841)">
<path d="M10.0119 17.4599C7.01369 17.4599 4.01627 17.4599 1.01806 17.4599C0.714934 17.4599 0.574786 17.5987 0.574786 17.8979C0.574786 17.9754 0.578723 18.053 0.573999 18.1297C0.5677 18.2227 0.558252 18.3157 0.54093 18.4064C0.476368 18.7374 0.159068 19.0026 -0.220432 18.9987C-0.601507 18.9948 -0.917233 18.7119 -0.974709 18.3483C-0.988094 18.263 -0.99518 18.1754 -0.99518 18.0894C-0.995967 16.3281 -1.00778 14.5661 -0.991243 12.8049C-0.981795 11.7785 -0.602295 10.8855 0.125212 10.1421C0.566913 9.69094 1.09207 9.37001 1.69282 9.16536C2.16522 9.00489 2.65338 8.95605 3.15098 8.95605C7.76246 8.95761 12.3739 8.95373 16.9854 8.95915C18.3365 8.96071 19.4309 9.49714 20.2419 10.5638C20.6403 11.0886 20.8781 11.6847 20.9592 12.3359C20.9867 12.5553 20.9985 12.7785 20.9993 13.0002C21.0025 14.7103 21.0017 16.4204 21.0009 18.1305C21.0009 18.3979 20.934 18.6413 20.7104 18.8181C20.4741 19.0049 20.2104 19.0537 19.9293 18.9398C19.66 18.8297 19.49 18.6274 19.4514 18.3382C19.4317 18.1925 19.4341 18.0429 19.4301 17.8956C19.4238 17.6576 19.3238 17.5142 19.1239 17.47C19.0798 17.4599 19.0333 17.4607 18.9876 17.4607C15.9965 17.4607 13.0054 17.4607 10.0135 17.4607L10.0119 17.4599Z" fill="#777777"/>
<path d="M9.89904 2C11.8438 2 13.7877 2 15.7317 2C16.3828 2 16.9914 2.14341 17.5166 2.53953C18.1922 3.04884 18.5866 3.71938 18.6197 4.56124C18.648 5.27519 18.6354 5.9907 18.6386 6.70543C18.6409 7.16589 18.6386 7.62636 18.6386 8.08682C18.6386 8.12791 18.6362 8.17132 18.6252 8.21085C18.5913 8.33566 18.5228 8.38527 18.3937 8.36124C18.2528 8.33488 18.1166 8.27829 17.9756 8.26279C17.6442 8.22713 17.3119 8.20233 16.9789 8.18527C16.7568 8.17364 16.6883 8.13411 16.6568 7.91938C16.556 7.23876 15.9159 6.62636 15.0971 6.63566C14.1838 6.64574 13.2705 6.63798 12.3579 6.63798C11.6784 6.63798 11.0982 7.03643 10.8675 7.66434C10.8344 7.75426 10.8218 7.85194 10.8045 7.94651C10.7722 8.11628 10.7084 8.17984 10.5368 8.18217C10.177 8.18605 9.81637 8.18605 9.45656 8.18217C9.29121 8.18062 9.22586 8.11628 9.19594 7.92791C9.15422 7.66357 9.05029 7.42791 8.88022 7.22093C8.57237 6.84574 8.17397 6.64186 7.68267 6.63953C6.74022 6.63488 5.79776 6.63721 4.85452 6.63876C4.06245 6.63953 3.44281 7.24884 3.34203 7.91783C3.30975 8.13411 3.2444 8.17209 3.02237 8.18605C2.65468 8.21008 2.28699 8.24419 1.92009 8.28295C1.8075 8.29457 1.69963 8.34264 1.58783 8.36124C1.46737 8.38062 1.41146 8.34031 1.37761 8.22403C1.36422 8.17829 1.35792 8.12946 1.35792 8.0814C1.35714 6.97674 1.34218 5.87209 1.36107 4.76744C1.38076 3.61163 1.92324 2.76202 2.98458 2.24806C3.40502 2.04574 3.86089 2 4.32228 2C6.1812 2 8.04012 2 9.89904 2Z" fill="#777777"/>
</g>
</g>
<defs>
<clipPath id="clip0_2484_4841">
<rect width="20" height="20" fill="white"/>
</clipPath>
<clipPath id="clip1_2484_4841">
<rect width="22" height="17" fill="white" transform="translate(-1 2)"/>
</clipPath>
</defs>
</svg>
