<svg width="20" height="20" viewBox="0 0 20 20" fill="none" xmlns="http://www.w3.org/2000/svg">
<g clip-path="url(#clip0_2484_4847)">
<g clip-path="url(#clip1_2484_4847)">
<path d="M0.270432 13.7617H10.111V15.5698H16.2625V13.7657H18.7064C18.8646 15.916 18.8771 17.8305 16.6716 19.2899C16.6447 19.3076 16.623 19.3319 16.5633 19.3851C16.8345 19.6104 17.1018 19.833 17.3665 20.0531C17.0092 20.3946 16.7222 20.6691 16.3932 20.9844C16.1029 20.6849 15.7889 20.3374 15.4467 20.0209C15.3462 19.9276 15.1683 19.8895 15.0224 19.8803C14.784 19.8659 14.5423 19.9046 14.302 19.9053C11.1067 19.9072 7.91145 19.9066 4.71554 19.9066C4.56251 19.9066 4.39897 19.9361 4.25777 19.8935C3.83151 19.7654 3.56092 19.9631 3.3074 20.2685C3.09132 20.5286 2.84502 20.763 2.61975 21.0008C2.31566 20.6809 2.04046 20.3919 1.73572 20.0708C1.93998 19.8902 2.19941 19.6603 2.49102 19.4015C2.29004 19.2577 2.13964 19.1579 1.99712 19.0475C0.929186 18.2246 0.351873 17.133 0.276343 15.7925C0.238906 15.1285 0.269775 14.4605 0.269775 13.7617H0.270432Z" fill="#777777"/>
<path d="M0.273589 8.78721C0.268335 8.66834 0.25914 8.56128 0.25914 8.45423C0.258483 6.71375 0.256513 4.97393 0.25914 3.23345C0.261767 1.3209 1.58913 -0.0136865 3.49905 0.000105915C4.14007 0.0047034 4.8008 -0.00843228 5.41686 0.136717C6.50975 0.394833 7.19806 1.15276 7.53039 2.22069C7.59476 2.42824 7.67817 2.52872 7.90607 2.59046C9.19205 2.93921 10.0945 4.14113 10.1109 5.48228C10.1135 5.69836 10.1109 5.91444 10.1109 6.14891H4.02382C3.73353 4.61401 4.56764 3.02985 6.3114 2.53529C6.15377 1.85027 5.47926 1.2723 4.77124 1.24734C4.23597 1.22829 3.69872 1.22632 3.16344 1.24734C2.24066 1.28346 1.49849 2.13071 1.49455 3.14676C1.48798 4.89774 1.49258 6.64938 1.49258 8.40037C1.49258 8.5199 1.49258 8.63944 1.49258 8.78656H0.272276L0.273589 8.78721Z" fill="#777777"/>
<path d="M10.0936 12.5328C9.96484 12.5328 9.8683 12.5328 9.77175 12.5328C6.64415 12.5328 3.51589 12.5335 0.388282 12.5321C-0.284921 12.5321 -0.768971 12.2136 -0.939078 11.6698C-1.19522 10.8514 -0.615283 10.0633 0.268748 10.0515C1.20926 10.039 2.14978 10.0482 3.09029 10.0482C5.29971 10.0482 7.50847 10.0482 9.71789 10.0482C9.83611 10.0482 9.95434 10.0482 10.0936 10.0482V12.5321V12.5328Z" fill="#777777"/>
<path d="M15.0208 14.3712H11.3605C11.3546 14.2556 11.3447 14.1506 11.3447 14.0455C11.3434 12.7772 11.3434 11.5083 11.3447 10.2401C11.3454 9.32254 11.8465 8.81813 12.7601 8.81419C13.099 8.81288 13.4379 8.80565 13.7768 8.81616C14.538 8.84046 15.0352 9.35209 15.0372 10.1153C15.0411 11.4387 15.0385 12.7615 15.0372 14.0849C15.0372 14.1709 15.028 14.2563 15.0208 14.3712Z" fill="#777777"/>
<path d="M16.2812 12.5213V10.0485C16.8763 10.0485 17.4628 10.0465 18.0487 10.0491C18.3541 10.0504 18.666 10.0255 18.9649 10.0747C19.6171 10.1824 20.0413 10.7164 20.0144 11.3397C19.9881 11.9512 19.5369 12.4759 18.8966 12.5094C18.0375 12.5547 17.1745 12.5206 16.2819 12.5206L16.2812 12.5213Z" fill="#777777"/>
</g>
</g>
<defs>
<clipPath id="clip0_2484_4847">
<rect width="20" height="20" fill="white"/>
</clipPath>
<clipPath id="clip1_2484_4847">
<rect width="21.0171" height="21" fill="white" transform="translate(-1)"/>
</clipPath>
</defs>
</svg>
