<svg width="48" height="48" viewBox="0 0 48 48" fill="none" xmlns="http://www.w3.org/2000/svg">
<mask id="mask0_2509_963" style="mask-type:alpha" maskUnits="userSpaceOnUse" x="0" y="0" width="48" height="48">
<rect width="48" height="48" fill="#D9D9D9"/>
</mask>
<g mask="url(#mask0_2509_963)">
<path d="M2.75644 43.3071L0.648438 41.1996L7.83344 34.0151L5.51794 27.8456C5.31027 27.3226 5.26994 26.7111 5.39694 26.0111C5.5236 25.3111 5.85877 24.6893 6.40244 24.1456L13.0024 17.5456C13.3511 17.197 13.7268 16.9355 14.1294 16.7611C14.5321 16.5868 14.9846 16.4996 15.4869 16.4996C15.9896 16.4996 16.4423 16.5868 16.8449 16.7611C17.2473 16.9355 17.6228 17.197 17.9714 17.5456L22.0099 21.4456C22.9229 22.3456 24.0101 23.0573 25.2714 23.5806C26.5331 24.1036 27.8948 24.3971 29.3564 24.4611V27.4611C27.5231 27.3971 25.8038 27.0516 24.1984 26.4246C22.5934 25.7976 21.2281 24.9278 20.1024 23.8151L18.3564 22.1071L12.9639 27.4996L17.3564 31.9921V43.4996H14.3564V33.2686L10.7564 29.9456V35.3071L2.75644 43.3071ZM30.3564 43.4996V30.2306L34.6334 26.1536L33.1254 17.8456C32.3691 18.7663 31.5628 19.5913 30.7064 20.3206C29.8498 21.0503 28.8919 21.6215 27.8329 22.0341C27.0406 21.9675 26.2811 21.7823 25.5544 21.4786C24.8274 21.1746 24.2076 20.7726 23.6949 20.2726C25.2206 20.019 26.6289 19.4433 27.9199 18.5456C29.2109 17.6483 30.2103 16.6228 30.9179 15.4691L32.8794 12.2691C33.3821 11.4588 34.0724 10.921 34.9504 10.6556C35.8288 10.39 36.6999 10.438 37.5639 10.7996L47.3564 14.9456V23.4996H44.3564V16.8921L39.6024 14.9916L45.2409 43.4996H42.0409L38.3834 28.1726L33.3564 32.4226V43.4996H30.3564ZM22.3564 17.2691C21.3331 17.2691 20.4619 16.9095 19.7429 16.1901C19.0236 15.4708 18.6639 14.5996 18.6639 13.5766C18.6639 12.5536 19.0236 11.6825 19.7429 10.9631C20.4619 10.2438 21.3331 9.88412 22.3564 9.88412C23.3794 9.88412 24.2504 10.2438 24.9694 10.9631C25.6888 11.6825 26.0484 12.5536 26.0484 13.5766C26.0484 14.5996 25.6888 15.4708 24.9694 16.1901C24.2504 16.9095 23.3794 17.2691 22.3564 17.2691ZM33.2024 9.19212C32.1794 9.19212 31.3083 8.83245 30.5889 8.11312C29.8696 7.39379 29.5099 6.52262 29.5099 5.49962C29.5099 4.47662 29.8696 3.60545 30.5889 2.88612C31.3083 2.16712 32.1794 1.80762 33.2024 1.80762C34.2254 1.80762 35.0966 2.16712 35.8159 2.88612C36.5353 3.60545 36.8949 4.47662 36.8949 5.49962C36.8949 6.52262 36.5353 7.39379 35.8159 8.11312C35.0966 8.83245 34.2254 9.19212 33.2024 9.19212Z" fill="#D9AA00"/>
</g>
</svg>
