<svg width="48" height="48" viewBox="0 0 48 48" fill="none" xmlns="http://www.w3.org/2000/svg">
<mask id="mask0_2478_1115" style="mask-type:alpha" maskUnits="userSpaceOnUse" x="0" y="0" width="48" height="48">
<rect width="48" height="48" fill="#D9D9D9"/>
</mask>
<g mask="url(#mask0_2478_1115)">
<path d="M11 43.1158V40.1158H22.5V31.3848H18C15.5027 31.3848 13.3783 30.5091 11.627 28.7578C9.87567 27.0068 9 24.8824 9 22.3848C9 20.5001 9.56283 18.7963 10.6885 17.2733C11.8142 15.7503 13.259 14.6183 15.023 13.8773C15.3103 11.3133 16.2898 9.25693 17.9615 7.70826C19.6335 6.15926 21.6463 5.38477 24 5.38477C26.3537 5.38477 28.3665 6.15926 30.0385 7.70826C31.7102 9.25693 32.6897 11.3133 32.977 13.8773C34.7537 14.5926 36.2017 15.7183 37.321 17.2543C38.4403 18.7899 39 20.5001 39 22.3848C39 24.8824 38.1243 27.0068 36.373 28.7578C34.6217 30.5091 32.4973 31.3848 30 31.3848H25.5V40.1158H37V43.1158H11Z" fill="#CEAB2E"/>
</g>
</svg>
