<svg width="48" height="48" viewBox="0 0 48 48" fill="none" xmlns="http://www.w3.org/2000/svg">
<mask id="mask0_2509_987" style="mask-type:alpha" maskUnits="userSpaceOnUse" x="0" y="0" width="48" height="48">
<rect width="48" height="48" fill="#D9D9D9"/>
</mask>
<g mask="url(#mask0_2509_987)">
<path d="M30.2885 21.5385H32.673V17.846H36.75C37.4657 17.846 38.0742 17.5955 38.5755 17.0945C39.0765 16.5935 39.327 15.9852 39.327 15.2695V13.0385C39.327 12.3228 39.0765 11.7143 38.5755 11.213C38.0742 10.712 37.4657 10.4615 36.75 10.4615H30.2885V21.5385ZM32.673 15.4615V12.846H36.9425V15.4615H32.673ZM26.6155 27C25.6052 27 24.75 26.65 24.05 25.95C23.35 25.25 23 24.3927 23 23.378V8.622C23 7.60733 23.35 6.75 24.05 6.05C24.75 5.35 25.6073 5 26.622 5H41.378C42.3927 5 43.25 5.35 43.95 6.05C44.65 6.75 45 7.60733 45 8.622V23.378C45 24.3927 44.65 25.25 43.95 25.95C43.25 26.65 42.3948 27 41.3845 27H35.5V41H32.5V27H26.6155ZM17.558 41C17.133 41 16.7767 40.8562 16.489 40.5685C16.2017 40.2812 16.058 39.925 16.058 39.5V37H5V21.154H16.073L13.55 14H5V11H14.1345C14.6025 11 15.0275 11.1375 15.4095 11.4125C15.7912 11.6875 16.056 12.05 16.204 12.5L20.2885 24.154V39.5C20.2885 39.925 20.1447 40.2812 19.857 40.5685C19.5697 40.8562 19.2135 41 18.7885 41H17.558ZM12.37 31.6925C13.0977 31.6925 13.7147 31.4377 14.221 30.928C14.7277 30.4187 14.981 29.8002 14.981 29.0725C14.981 28.3448 14.7262 27.7277 14.2165 27.221C13.7072 26.7147 13.0887 26.4615 12.361 26.4615C11.6333 26.4615 11.0162 26.7162 10.5095 27.2255C10.0032 27.7352 9.75 28.3538 9.75 29.0815C9.75 29.8092 10.0048 30.4262 10.5145 30.9325C11.0238 31.4392 11.6423 31.6925 12.37 31.6925Z" fill="#D9AA00"/>
</g>
</svg>
