<svg width="48" height="48" viewBox="0 0 48 48" fill="none" xmlns="http://www.w3.org/2000/svg">
<mask id="mask0_2480_921" style="mask-type:alpha" maskUnits="userSpaceOnUse" x="0" y="0" width="48" height="48">
<rect width="48" height="48" fill="#D9D9D9"/>
</mask>
<g mask="url(#mask0_2480_921)">
<path d="M4.5 41.4615V38.423C5.65133 38.359 6.5405 38.0225 7.1675 37.4135C7.79417 36.8045 8.964 36.5 10.677 36.5C12.3897 36.5 13.6088 36.8333 14.3345 37.5C15.0602 38.1667 16.0615 38.5 17.3385 38.5C18.6155 38.5 19.6168 38.1667 20.3425 37.5C21.0682 36.8333 22.2873 36.5 24 36.5C25.7127 36.5 26.9383 36.8333 27.677 37.5C28.4153 38.1667 29.423 38.5 30.7 38.5C31.977 38.5 32.9718 38.1667 33.6845 37.5C34.3975 36.8333 35.6103 36.5 37.323 36.5C39.036 36.5 40.2058 36.8045 40.8325 37.4135C41.4595 38.0225 42.3487 38.359 43.5 38.423V41.4615C41.918 41.3845 40.7993 41.0383 40.144 40.423C39.489 39.8077 38.5487 39.5 37.323 39.5C36.0973 39.5 35.1282 39.8333 34.4155 40.5C33.7025 41.1667 32.464 41.5 30.7 41.5C28.936 41.5 27.6847 41.1667 26.946 40.5C26.2077 39.8333 25.2257 39.5 24 39.5C22.7743 39.5 21.7987 39.8333 21.073 40.5C20.3473 41.1667 19.1025 41.5 17.3385 41.5C15.5745 41.5 14.3297 41.1667 13.604 40.5C12.8783 39.8333 11.9027 39.5 10.677 39.5C9.45133 39.5 8.511 39.8077 7.856 40.423C7.20067 41.0383 6.082 41.3845 4.5 41.4615ZM4.5 32.4615V29.423C5.65133 29.359 6.5405 29.0225 7.1675 28.4135C7.79417 27.8045 8.964 27.5 10.677 27.5C12.3897 27.5 13.614 27.8333 14.35 28.5C15.086 29.1667 16.0822 29.5 17.3385 29.5C18.6155 29.5 19.6168 29.1667 20.3425 28.5C21.0682 27.8333 22.2873 27.5 24 27.5C25.7127 27.5 26.9318 27.8333 27.6575 28.5C28.3832 29.1667 29.3845 29.5 30.6615 29.5C31.9385 29.5 32.9398 29.1667 33.6655 28.5C34.3912 27.8333 35.6103 27.5 37.323 27.5C39.036 27.5 40.2058 27.8045 40.8325 28.4135C41.4595 29.0225 42.3487 29.359 43.5 29.423V32.4615C41.918 32.3845 40.7993 32.0383 40.144 31.423C39.489 30.8077 38.5487 30.5 37.323 30.5C36.0973 30.5 35.1435 30.8333 34.4615 31.5C33.7795 32.1667 32.5257 32.5 30.7 32.5C28.9153 32.5 27.659 32.1667 26.931 31.5C26.2027 30.8333 25.2257 30.5 24 30.5C22.7333 30.5 21.7628 30.8333 21.0885 31.5C20.4142 32.1667 19.1642 32.5 17.3385 32.5C15.5128 32.5 14.2525 32.1667 13.5575 31.5C12.8628 30.8333 11.9027 30.5 10.677 30.5C9.45133 30.5 8.511 30.8077 7.856 31.423C7.20067 32.0383 6.082 32.3845 4.5 32.4615ZM14.6845 22.569L21.2385 16.0155L18.7 13.477C17.613 12.3897 16.4848 11.612 15.3155 11.144C14.1462 10.6763 12.6872 10.4232 10.9385 10.3845V6.5C13.2335 6.53833 15.1335 6.823 16.6385 7.354C18.1435 7.88467 19.6282 8.882 21.0925 10.346L33.3155 22.569C32.9025 22.859 32.4935 23.0867 32.0885 23.252C31.6832 23.4173 31.214 23.5 30.681 23.5C29.6347 23.5 28.7198 23.1667 27.9365 22.5C27.1532 21.8333 25.841 21.5 24 21.5C22.159 21.5 20.8468 21.8333 20.0635 22.5C19.2802 23.1667 18.3653 23.5 17.319 23.5C16.786 23.5 16.3168 23.4173 15.9115 23.252C15.5065 23.0867 15.0975 22.859 14.6845 22.569ZM33.1305 6.6925C34.4152 6.6925 35.5057 7.14567 36.402 8.052C37.298 8.95833 37.746 10.0435 37.746 11.3075C37.746 12.5922 37.298 13.6827 36.402 14.579C35.5057 15.475 34.4152 15.923 33.1305 15.923C31.8462 15.923 30.7558 15.475 29.8595 14.579C28.9635 13.6827 28.5155 12.5922 28.5155 11.3075C28.5155 10.0435 28.9635 8.95833 29.8595 8.052C30.7558 7.14567 31.8462 6.6925 33.1305 6.6925Z" fill="#CEAB2E"/>
</g>
</svg>
