<svg width="48" height="48" viewBox="0 0 48 48" fill="none" xmlns="http://www.w3.org/2000/svg">
<mask id="mask0_2509_981" style="mask-type:alpha" maskUnits="userSpaceOnUse" x="0" y="0" width="48" height="48">
<rect width="48" height="48" fill="#D9D9D9"/>
</mask>
<g mask="url(#mask0_2509_981)">
<path d="M19.231 15.7889C17.731 15.7889 16.4553 15.2633 15.404 14.2119C14.3527 13.1606 13.827 11.8849 13.827 10.3849C13.827 8.89795 14.3527 7.62561 15.404 6.56794C16.4553 5.51028 17.731 4.98145 19.231 4.98145C20.718 4.98145 21.9903 5.51028 23.048 6.56794C24.1057 7.62561 24.6345 8.89795 24.6345 10.3849C24.6345 11.8849 24.1057 13.1606 23.048 14.2119C21.9903 15.2633 20.718 15.7889 19.231 15.7889ZM3 43.0004V40.0004H7V25.1544C7 24.1801 7.42367 23.2441 8.271 22.3464C9.11867 21.4491 10.3142 20.6928 11.8575 20.0774C12.9242 19.6184 14.1185 19.2504 15.4405 18.9734C16.7622 18.6964 18.0257 18.5579 19.231 18.5579C20.4153 18.5579 21.6903 18.7048 23.056 18.9984C24.4213 19.2921 25.668 19.6851 26.796 20.1774C28.278 20.8058 29.4228 21.5538 30.2305 22.4214C31.0385 23.2894 31.4425 24.2004 31.4425 25.1544V27.8464H20.869L23.946 40.0004H28.6925C28.5692 39.8364 28.4703 39.6646 28.396 39.4849C28.3217 39.3056 28.255 39.1146 28.196 38.9119L26.5195 32.2314H44.8655L43.2075 38.9119C43.1485 39.1146 43.0787 39.3056 42.998 39.4849C42.9173 39.6646 42.8153 39.8364 42.692 40.0004H45V43.0004H3Z" fill="#D9AA00"/>
</g>
</svg>
